<svg xmlns="http://www.w3.org/2000/svg" xml:space="preserve" viewBox="0 420 1200 350"><path fill="#B5EAD7" d="M291.945 714.26s7.468 10.455-16.43 19.417-85.135-2.987-120.982-1.494-55.263 22.404-55.263 22.404 2.987-53.77-14.936-95.59-40.327-59.744-32.859-68.706 55.263-14.936 85.135-4.481 76.174-11.949 76.174-11.949l62.731 26.885-4.481 86.629zM908.055 714.26s-7.468 10.455 16.43 19.417 85.135-2.987 120.982-1.494 55.263 22.404 55.263 22.404-2.987-53.77 14.936-95.59 40.327-59.744 32.859-68.706-55.263-14.936-85.135-4.481-76.174-11.949-76.174-11.949l-62.731 26.885 4.481 86.629z"/><path fill="#F3B625" d="m197.102 704.552.257.63c11.418 13.81 42.983-5.902 64.714-7.351 22.404-1.494 29.872 16.43 29.872 16.43l-8.962-55.263s-23.898 2.987-58.25 13.442-27.631 32.112-27.631 32.112"/><path fill="#B5EAD7" d="M1010.25 497.408c-65.303-19.387-219.069-51.996-403.902-51.996-2.129 0-4.237.014-6.348.026-2.111-.012-4.219-.026-6.348-.026-184.833 0-338.599 32.609-403.902 51.996-41.191 12.229-31.822 22.141-28.811 39.461 8.924 51.34 27.598 154.651 35.416 166.936.314.493.651.949 1.004 1.377l-.257-.63s-6.721-21.657 27.632-32.112 58.25-13.442 58.25-13.442S451.943 626.963 600 626.164c148.057.798 317.016 32.833 317.016 32.833s23.898 2.987 58.25 13.442 27.632 32.112 27.632 32.112l-.257.63c.354-.428.69-.883 1.004-1.377 7.818-12.285 26.492-115.595 35.416-166.936 3.01-17.319 12.379-27.231-28.811-39.46"/><path fill="#F3B625" d="m1002.898 704.552-.257.63c-11.418 13.81-42.983-5.902-64.714-7.351-22.404-1.494-29.872 16.43-29.872 16.43l8.962-55.263s23.898 2.987 58.25 13.442 27.631 32.112 27.631 32.112"/></svg>